<?xml version="1.0" standalone="no"?>
<!DOCTYPE svg PUBLIC "-//W3C//DTD SVG 20010904//EN"
 "http://www.w3.org/TR/2001/REC-SVG-20010904/DTD/svg10.dtd">
<svg version="1.0" xmlns="http://www.w3.org/2000/svg"
 width="304.000000pt" height="304.000000pt" viewBox="0 0 304.000000 304.000000"
 preserveAspectRatio="xMidYMid meet">
<metadata>
Created by potrace 1.14, written by Peter Selinger 2001-2017
</metadata>
<g transform="translate(0.000000,304.000000) scale(0.100000,-0.100000)"
fill="#000000" stroke="none">
<path d="M0 1520 l0 -1520 1520 0 1520 0 0 1520 0 1520 -1520 0 -1520 0 0
-1520z m800 1040 l0 -160 80 0 80 0 0 160 0 160 240 0 240 0 0 -400 0 -400
-160 0 -160 0 0 -80 0 -80 400 0 400 0 0 80 0 80 -160 0 -160 0 0 400 0 400
240 0 240 0 0 -160 0 -160 80 0 80 0 0 160 0 160 240 0 240 0 0 -400 0 -400
-160 0 -160 0 0 -80 0 -80 160 0 160 0 0 -400 0 -400 -240 0 -240 0 0 160 0
160 -240 0 -240 0 0 -80 0 -80 160 0 160 0 0 -240 0 -240 -160 0 -160 0 0 -80
0 -80 240 0 240 0 0 160 0 160 240 0 240 0 0 -240 0 -240 -80 0 -80 0 0 160 0
160 -80 0 -80 0 0 -160 0 -160 -400 0 -400 0 0 240 0 240 160 0 160 0 0 80 0
80 -160 0 -160 0 0 240 0 240 400 0 400 0 0 -160 0 -160 80 0 80 0 0 240 0
240 -160 0 -160 0 0 240 0 240 160 0 160 0 0 240 0 240 -80 0 -80 0 0 -160 0
-160 -240 0 -240 0 0 160 0 160 -80 0 -80 0 0 -240 0 -240 160 0 160 0 0 -240
0 -240 -560 0 -560 0 0 240 0 240 160 0 160 0 0 240 0 240 -80 0 -80 0 0 -160
0 -160 -240 0 -240 0 0 160 0 160 -80 0 -80 0 0 -240 0 -240 160 0 160 0 0
-240 0 -240 -160 0 -160 0 0 -240 0 -240 80 0 80 0 0 160 0 160 400 0 400 0 0
-240 0 -240 -160 0 -160 0 0 -80 0 -80 160 0 160 0 0 -240 0 -240 -400 0 -400
0 0 160 0 160 -80 0 -80 0 0 -160 0 -160 -80 0 -80 0 0 240 0 240 240 0 240 0
0 -160 0 -160 240 0 240 0 0 80 0 80 -160 0 -160 0 0 240 0 240 160 0 160 0 0
80 0 80 -240 0 -240 0 0 -160 0 -160 -240 0 -240 0 0 400 0 400 160 0 160 0 0
80 0 80 -160 0 -160 0 0 400 0 400 240 0 240 0 0 -160z"/>
</g>
</svg>
